<svg xmlns="http://www.w3.org/2000/svg" xmlns:svg="http://www.w3.org/2000/svg" id="svg4" version="1.1" viewBox="0 0 512 512"><metadata id="metadata10"/><g id="layer2" display="inline"><path id="path867" fill="#8fa1b3" fill-opacity=".717" stroke="none" stroke-linecap="butt" stroke-linejoin="miter" stroke-opacity="1" stroke-width=".967" d="M 481,31 C 353.44825,38.649916 259.09641,95.672598 209.38366,180.07435 l -91.28632,1.54128 v 0 L 37.856202,290.59292 v 0 l 23.009608,23.0096 86.87898,-28.90019 28.61055,34.31422 16.62813,16.62813 32.54308,26.83941 -27.12906,88.65015 23.00961,23.00961 v 0 l 108.97731,-80.2411 v 0 l 1.54127,-91.28636 C 416.32741,252.90365 474.22255,157.625 481,31 Z m -68.64307,69.16919 c 10.5712,10.57161 10.57123,27.71114 1e-5,38.28274 -10.5716,10.57119 -27.71113,10.57121 -38.28274,0 -10.57234,-10.57147 -10.57275,-27.71206 -9.4e-4,-38.28406 10.57201,-10.571822 27.71257,-10.571372 38.28406,9.7e-4 z"/></g></svg>